<mxfile host="65bd71144e">
    <diagram id="7cXKC5MkLCUzIoHJtJAB" name="Page-1">
        <mxGraphModel dx="280" dy="768" grid="1" gridSize="10" guides="1" tooltips="1" connect="1" arrows="1" fold="1" page="1" pageScale="1" pageWidth="850" pageHeight="1100" math="0" shadow="0">
            <root>
                <mxCell id="0"/>
                <mxCell id="1" parent="0"/>
                <mxCell id="2" value="Pickomino" style="swimlane;fontStyle=0;childLayout=stackLayout;horizontal=1;startSize=30;horizontalStack=0;resizeParent=1;resizeParentMax=0;resizeLast=0;collapsible=1;marginBottom=0;whiteSpace=wrap;html=1;" parent="1" vertex="1">
                    <mxGeometry x="860" y="300" width="140" height="90" as="geometry"/>
                </mxCell>
                <mxCell id="17" value="value" style="text;strokeColor=none;fillColor=none;align=left;verticalAlign=middle;spacingLeft=4;spacingRight=4;overflow=hidden;points=[[0,0.5],[1,0.5]];portConstraint=eastwest;rotatable=0;whiteSpace=wrap;html=1;" parent="2" vertex="1">
                    <mxGeometry y="30" width="140" height="30" as="geometry"/>
                </mxCell>
                <mxCell id="3" value="nbWorms" style="text;strokeColor=none;fillColor=none;align=left;verticalAlign=middle;spacingLeft=4;spacingRight=4;overflow=hidden;points=[[0,0.5],[1,0.5]];portConstraint=eastwest;rotatable=0;whiteSpace=wrap;html=1;" parent="2" vertex="1">
                    <mxGeometry y="60" width="140" height="30" as="geometry"/>
                </mxCell>
                <mxCell id="55" style="edgeStyle=none;rounded=0;html=1;exitX=0.75;exitY=0;exitDx=0;exitDy=0;entryX=0.793;entryY=1;entryDx=0;entryDy=0;entryPerimeter=0;fontSize=13;startArrow=open;startFill=0;endArrow=none;endFill=0;" parent="1" source="7" target="45" edge="1">
                    <mxGeometry relative="1" as="geometry"/>
                </mxCell>
                <mxCell id="56" value="Dés ; List&amp;lt;Dice&amp;gt;" style="edgeLabel;html=1;align=center;verticalAlign=middle;resizable=0;points=[];fontSize=13;" parent="55" vertex="1" connectable="0">
                    <mxGeometry x="0.5652" y="-3" relative="1" as="geometry">
                        <mxPoint x="15" y="-33" as="offset"/>
                    </mxGeometry>
                </mxCell>
                <mxCell id="57" value="Possède" style="edgeLabel;html=1;align=center;verticalAlign=middle;resizable=0;points=[];fontSize=13;" parent="55" vertex="1" connectable="0">
                    <mxGeometry x="0.3379" y="-1" relative="1" as="geometry">
                        <mxPoint x="7" y="34" as="offset"/>
                    </mxGeometry>
                </mxCell>
                <mxCell id="58" value="1" style="edgeLabel;html=1;align=center;verticalAlign=middle;resizable=0;points=[];fontSize=13;" parent="55" vertex="1" connectable="0">
                    <mxGeometry x="-0.8938" y="2" relative="1" as="geometry">
                        <mxPoint x="37" y="-274" as="offset"/>
                    </mxGeometry>
                </mxCell>
                <mxCell id="7" value="Dice" style="swimlane;fontStyle=0;childLayout=stackLayout;horizontal=1;startSize=30;horizontalStack=0;resizeParent=1;resizeParentMax=0;resizeLast=0;collapsible=1;marginBottom=0;whiteSpace=wrap;html=1;" parent="1" vertex="1">
                    <mxGeometry x="1510" y="820" width="140" height="100" as="geometry"/>
                </mxCell>
                <mxCell id="8" value="Valeur" style="text;strokeColor=none;fillColor=none;align=left;verticalAlign=middle;spacingLeft=4;spacingRight=4;overflow=hidden;points=[[0,0.5],[1,0.5]];portConstraint=eastwest;rotatable=0;whiteSpace=wrap;html=1;" parent="7" vertex="1">
                    <mxGeometry y="30" width="140" height="30" as="geometry"/>
                </mxCell>
                <mxCell id="9" value="Faces" style="text;strokeColor=none;fillColor=none;align=left;verticalAlign=middle;spacingLeft=4;spacingRight=4;overflow=hidden;points=[[0,0.5],[1,0.5]];portConstraint=eastwest;rotatable=0;whiteSpace=wrap;html=1;" parent="7" vertex="1">
                    <mxGeometry y="60" width="140" height="40" as="geometry"/>
                </mxCell>
                <mxCell id="15" value="" style="edgeStyle=none;exitX=0.15;exitY=1;exitDx=0;exitDy=0;exitPerimeter=0;entryX=1;entryY=0;entryDx=0;entryDy=0;endArrow=open;endFill=0;rounded=0;html=1;fontSize=15;startArrow=none;startFill=0;" parent="1" source="13" target="2" edge="1">
                    <mxGeometry relative="1" as="geometry">
                        <mxPoint x="1290" y="150" as="targetPoint"/>
                    </mxGeometry>
                </mxCell>
                <mxCell id="16" value="Contient" style="edgeLabel;html=1;align=center;verticalAlign=middle;resizable=0;points=[];rotation=0;fontSize=13;" parent="15" vertex="1" connectable="0">
                    <mxGeometry x="-0.2867" y="-3" relative="1" as="geometry">
                        <mxPoint x="-60" y="21" as="offset"/>
                    </mxGeometry>
                </mxCell>
                <mxCell id="30" value="Pickominos" style="edgeLabel;html=1;align=center;verticalAlign=middle;resizable=0;points=[];fontSize=13;" parent="15" vertex="1" connectable="0">
                    <mxGeometry x="-0.7608" y="4" relative="1" as="geometry">
                        <mxPoint x="-5" y="-1" as="offset"/>
                    </mxGeometry>
                </mxCell>
                <mxCell id="11" value="Pile" style="swimlane;fontStyle=0;childLayout=stackLayout;horizontal=1;startSize=30;horizontalStack=0;resizeParent=1;resizeParentMax=0;resizeLast=0;collapsible=1;marginBottom=0;whiteSpace=wrap;html=1;" parent="1" vertex="1">
                    <mxGeometry x="1290" y="150" width="140" height="60" as="geometry"/>
                </mxCell>
                <mxCell id="13" value="Nombre Pickomino" style="text;strokeColor=none;fillColor=none;align=left;verticalAlign=middle;spacingLeft=4;spacingRight=4;overflow=hidden;points=[[0,0.5],[1,0.5]];portConstraint=eastwest;rotatable=0;whiteSpace=wrap;html=1;" parent="11" vertex="1">
                    <mxGeometry y="30" width="140" height="30" as="geometry"/>
                </mxCell>
                <mxCell id="23" style="edgeStyle=none;rounded=0;html=1;exitX=0.25;exitY=0;exitDx=0;exitDy=0;fontSize=13;startArrow=none;startFill=0;endArrow=open;endFill=0;entryX=0.25;entryY=1;entryDx=0;entryDy=0;" parent="1" source="19" target="51" edge="1">
                    <mxGeometry relative="1" as="geometry">
                        <mxPoint x="1480" y="230" as="targetPoint"/>
                    </mxGeometry>
                </mxCell>
                <mxCell id="24" value="Possède" style="edgeLabel;html=1;align=center;verticalAlign=middle;resizable=0;points=[];fontSize=13;rotation=90;" parent="23" vertex="1" connectable="0">
                    <mxGeometry x="0.2697" relative="1" as="geometry">
                        <mxPoint x="15" y="6" as="offset"/>
                    </mxGeometry>
                </mxCell>
                <mxCell id="29" value="Main 1" style="edgeLabel;html=1;align=center;verticalAlign=middle;resizable=0;points=[];fontSize=13;" parent="23" vertex="1" connectable="0">
                    <mxGeometry x="-0.8202" relative="1" as="geometry">
                        <mxPoint x="22" as="offset"/>
                    </mxGeometry>
                </mxCell>
                <mxCell id="64" value="1" style="edgeLabel;html=1;align=center;verticalAlign=middle;resizable=0;points=[];fontSize=13;" parent="23" vertex="1" connectable="0">
                    <mxGeometry x="0.6105" y="1" relative="1" as="geometry">
                        <mxPoint x="16" y="-17" as="offset"/>
                    </mxGeometry>
                </mxCell>
                <mxCell id="19" value="Joueur" style="swimlane;fontStyle=0;childLayout=stackLayout;horizontal=1;startSize=30;horizontalStack=0;resizeParent=1;resizeParentMax=0;resizeLast=0;collapsible=1;marginBottom=0;whiteSpace=wrap;html=1;fontSize=13;" parent="1" vertex="1">
                    <mxGeometry x="1500" y="470" width="140" height="60" as="geometry"/>
                </mxCell>
                <mxCell id="45" value="Score" style="text;strokeColor=none;fillColor=none;align=left;verticalAlign=middle;spacingLeft=4;spacingRight=4;overflow=hidden;points=[[0,0.5],[1,0.5]];portConstraint=eastwest;rotatable=0;whiteSpace=wrap;html=1;" parent="19" vertex="1">
                    <mxGeometry y="30" width="140" height="30" as="geometry"/>
                </mxCell>
                <mxCell id="32" style="edgeStyle=none;rounded=0;html=1;exitX=1;exitY=0;exitDx=0;exitDy=0;fontSize=13;startArrow=open;startFill=0;endArrow=open;endFill=0;entryX=0.25;entryY=1;entryDx=0;entryDy=0;" parent="1" source="25" target="19" edge="1">
                    <mxGeometry relative="1" as="geometry">
                        <mxPoint x="1430" y="450" as="targetPoint"/>
                    </mxGeometry>
                </mxCell>
                <mxCell id="33" value="Joueurs" style="edgeLabel;html=1;align=center;verticalAlign=middle;resizable=0;points=[];fontSize=13;" parent="32" vertex="1" connectable="0">
                    <mxGeometry x="-0.7473" y="1" relative="1" as="geometry">
                        <mxPoint x="7" y="22" as="offset"/>
                    </mxGeometry>
                </mxCell>
                <mxCell id="36" value="est Dans Partie" style="edgeLabel;html=1;align=center;verticalAlign=middle;resizable=0;points=[];fontSize=13;rotation=-30;" parent="32" vertex="1" connectable="0">
                    <mxGeometry x="-0.281" relative="1" as="geometry">
                        <mxPoint x="14" y="-18" as="offset"/>
                    </mxGeometry>
                </mxCell>
                <mxCell id="37" value="Partie 2.4" style="edgeLabel;html=1;align=center;verticalAlign=middle;resizable=0;points=[];fontSize=13;" parent="32" vertex="1" connectable="0">
                    <mxGeometry x="0.7579" y="-2" relative="1" as="geometry">
                        <mxPoint x="6" y="7" as="offset"/>
                    </mxGeometry>
                </mxCell>
                <mxCell id="61" value="0.1" style="edgeLabel;html=1;align=center;verticalAlign=middle;resizable=0;points=[];fontSize=13;" parent="32" vertex="1" connectable="0">
                    <mxGeometry x="-0.2836" y="-1" relative="1" as="geometry">
                        <mxPoint x="3" y="41" as="offset"/>
                    </mxGeometry>
                </mxCell>
                <mxCell id="42" style="edgeStyle=none;rounded=0;html=1;exitX=0.5;exitY=0;exitDx=0;exitDy=0;fontSize=13;startArrow=none;startFill=0;endArrow=open;endFill=0;entryX=0.25;entryY=1;entryDx=0;entryDy=0;" parent="1" source="25" target="47" edge="1">
                    <mxGeometry relative="1" as="geometry">
                        <mxPoint x="1310" y="300" as="targetPoint"/>
                    </mxGeometry>
                </mxCell>
                <mxCell id="43" value="est Défausse" style="edgeLabel;html=1;align=center;verticalAlign=middle;resizable=0;points=[];fontSize=13;" parent="42" vertex="1" connectable="0">
                    <mxGeometry x="-0.0694" y="-4" relative="1" as="geometry">
                        <mxPoint x="-4" y="-42" as="offset"/>
                    </mxGeometry>
                </mxCell>
                <mxCell id="46" value="Défausse" style="edgeLabel;html=1;align=center;verticalAlign=middle;resizable=0;points=[];fontSize=13;" parent="42" vertex="1" connectable="0">
                    <mxGeometry x="-0.9185" y="4" relative="1" as="geometry">
                        <mxPoint as="offset"/>
                    </mxGeometry>
                </mxCell>
                <mxCell id="71" value="1" style="edgeLabel;html=1;align=center;verticalAlign=middle;resizable=0;points=[];fontSize=13;" parent="42" vertex="1" connectable="0">
                    <mxGeometry x="-0.1869" y="2" relative="1" as="geometry">
                        <mxPoint x="30" y="-128" as="offset"/>
                    </mxGeometry>
                </mxCell>
                <mxCell id="75" value="0.1" style="edgeLabel;html=1;align=center;verticalAlign=middle;resizable=0;points=[];fontSize=13;" parent="42" vertex="1" connectable="0">
                    <mxGeometry x="-0.6076" relative="1" as="geometry">
                        <mxPoint x="19" y="9" as="offset"/>
                    </mxGeometry>
                </mxCell>
                <mxCell id="25" value="Game" style="swimlane;fontStyle=0;childLayout=stackLayout;horizontal=1;startSize=30;horizontalStack=0;resizeParent=1;resizeParentMax=0;resizeLast=0;collapsible=1;marginBottom=0;whiteSpace=wrap;html=1;fontSize=13;" parent="1" vertex="1">
                    <mxGeometry x="1210" y="620" width="140" height="60" as="geometry"/>
                </mxCell>
                <mxCell id="40" value="id" style="text;strokeColor=none;fillColor=none;align=left;verticalAlign=middle;spacingLeft=4;spacingRight=4;overflow=hidden;points=[[0,0.5],[1,0.5]];portConstraint=eastwest;rotatable=0;whiteSpace=wrap;html=1;" parent="25" vertex="1">
                    <mxGeometry y="30" width="140" height="30" as="geometry"/>
                </mxCell>
                <mxCell id="31" style="edgeStyle=none;rounded=0;html=1;exitX=0.014;exitY=-0.033;exitDx=0;exitDy=0;fontSize=13;startArrow=open;startFill=0;endArrow=none;endFill=0;exitPerimeter=0;" parent="1" source="8" target="25" edge="1">
                    <mxGeometry relative="1" as="geometry"/>
                </mxCell>
                <mxCell id="35" value="Dés" style="edgeLabel;html=1;align=center;verticalAlign=middle;resizable=0;points=[];fontSize=13;" parent="31" vertex="1" connectable="0">
                    <mxGeometry x="0.8662" y="-4" relative="1" as="geometry">
                        <mxPoint x="-23" y="12" as="offset"/>
                    </mxGeometry>
                </mxCell>
                <mxCell id="38" value="contient Dés" style="edgeLabel;html=1;align=center;verticalAlign=middle;resizable=0;points=[];fontSize=13;rotation=45;" parent="31" vertex="1" connectable="0">
                    <mxGeometry x="0.1258" y="-1" relative="1" as="geometry">
                        <mxPoint x="-12" y="-3" as="offset"/>
                    </mxGeometry>
                </mxCell>
                <mxCell id="59" value="1" style="edgeLabel;html=1;align=center;verticalAlign=middle;resizable=0;points=[];fontSize=13;" parent="31" vertex="1" connectable="0">
                    <mxGeometry x="-0.6632" relative="1" as="geometry">
                        <mxPoint x="-138" y="-130" as="offset"/>
                    </mxGeometry>
                </mxCell>
                <mxCell id="60" value="8" style="edgeLabel;html=1;align=center;verticalAlign=middle;resizable=0;points=[];fontSize=13;" parent="31" vertex="1" connectable="0">
                    <mxGeometry x="0.6626" y="5" relative="1" as="geometry">
                        <mxPoint x="145" y="138" as="offset"/>
                    </mxGeometry>
                </mxCell>
                <mxCell id="49" style="edgeStyle=none;rounded=0;html=1;exitX=0.25;exitY=0;exitDx=0;exitDy=0;entryX=0.571;entryY=1.033;entryDx=0;entryDy=0;entryPerimeter=0;fontSize=13;startArrow=none;startFill=0;endArrow=block;endFill=1;" parent="1" source="47" target="13" edge="1">
                    <mxGeometry relative="1" as="geometry"/>
                </mxCell>
                <mxCell id="47" value="Défausse" style="swimlane;fontStyle=0;childLayout=stackLayout;horizontal=1;startSize=30;horizontalStack=0;resizeParent=1;resizeParentMax=0;resizeLast=0;collapsible=1;marginBottom=0;whiteSpace=wrap;html=1;" parent="1" vertex="1">
                    <mxGeometry x="1250" y="310" width="140" height="60" as="geometry"/>
                </mxCell>
                <mxCell id="53" style="edgeStyle=none;rounded=0;html=1;exitX=0;exitY=0;exitDx=0;exitDy=0;fontSize=13;startArrow=none;startFill=0;endArrow=block;endFill=1;" parent="1" source="51" target="13" edge="1">
                    <mxGeometry relative="1" as="geometry"/>
                </mxCell>
                <mxCell id="51" value="Main" style="swimlane;fontStyle=0;childLayout=stackLayout;horizontal=1;startSize=30;horizontalStack=0;resizeParent=1;resizeParentMax=0;resizeLast=0;collapsible=1;marginBottom=0;whiteSpace=wrap;html=1;" parent="1" vertex="1">
                    <mxGeometry x="1500" y="270" width="140" height="60" as="geometry"/>
                </mxCell>
                <mxCell id="65" value="1" style="text;html=1;align=center;verticalAlign=middle;resizable=0;points=[];autosize=1;strokeColor=none;fillColor=none;fontSize=13;" parent="1" vertex="1">
                    <mxGeometry x="1250" y="170" width="30" height="30" as="geometry"/>
                </mxCell>
                <mxCell id="66" value="0.16" style="text;html=1;align=center;verticalAlign=middle;resizable=0;points=[];autosize=1;strokeColor=none;fillColor=none;fontSize=13;" parent="1" vertex="1">
                    <mxGeometry x="990" y="250" width="50" height="30" as="geometry"/>
                </mxCell>
                <mxCell id="67" style="edgeStyle=none;rounded=0;html=1;exitX=1;exitY=0.5;exitDx=0;exitDy=0;entryX=0;entryY=0;entryDx=0;entryDy=0;fontSize=13;startArrow=none;startFill=0;endArrow=open;endFill=0;" parent="1" source="3" target="25" edge="1">
                    <mxGeometry relative="1" as="geometry"/>
                </mxCell>
                <mxCell id="68" value="est Brochette" style="edgeLabel;html=1;align=center;verticalAlign=middle;resizable=0;points=[];fontSize=13;" parent="67" vertex="1" connectable="0">
                    <mxGeometry x="0.2269" y="-1" relative="1" as="geometry">
                        <mxPoint as="offset"/>
                    </mxGeometry>
                </mxCell>
                <mxCell id="69" value="Brochette&amp;nbsp;" style="edgeLabel;html=1;align=center;verticalAlign=middle;resizable=0;points=[];fontSize=13;" parent="67" vertex="1" connectable="0">
                    <mxGeometry x="0.8517" y="-1" relative="1" as="geometry">
                        <mxPoint x="-24" y="27" as="offset"/>
                    </mxGeometry>
                </mxCell>
                <mxCell id="70" value="0.1" style="edgeLabel;html=1;align=center;verticalAlign=middle;resizable=0;points=[];fontSize=13;" parent="67" vertex="1" connectable="0">
                    <mxGeometry x="-0.8176" y="-3" relative="1" as="geometry">
                        <mxPoint x="173" y="261" as="offset"/>
                    </mxGeometry>
                </mxCell>
                <mxCell id="73" value="&lt;span style=&quot;color: rgb(240, 240, 240); font-family: Helvetica; font-size: 13px; font-style: normal; font-variant-ligatures: normal; font-variant-caps: normal; font-weight: 400; letter-spacing: normal; orphans: 2; text-align: center; text-indent: 0px; text-transform: none; widows: 2; word-spacing: 0px; -webkit-text-stroke-width: 0px; background-color: rgb(24, 20, 29); text-decoration-thickness: initial; text-decoration-style: initial; text-decoration-color: initial; float: none; display: inline !important;&quot;&gt;0.16&lt;/span&gt;" style="text;whiteSpace=wrap;html=1;fontSize=13;" parent="1" vertex="1">
                    <mxGeometry x="950" y="410" width="30" height="20" as="geometry"/>
                </mxCell>
                <mxCell id="76" value="&lt;span style=&quot;color: rgb(240, 240, 240); font-family: Helvetica; font-size: 13px; font-style: normal; font-variant-ligatures: normal; font-variant-caps: normal; font-weight: 400; letter-spacing: normal; orphans: 2; text-align: center; text-indent: 0px; text-transform: none; widows: 2; word-spacing: 0px; -webkit-text-stroke-width: 0px; background-color: rgb(24, 20, 29); text-decoration-thickness: initial; text-decoration-style: initial; text-decoration-color: initial; float: none; display: inline !important;&quot;&gt;0,8&lt;/span&gt;" style="text;whiteSpace=wrap;html=1;fontSize=13;" parent="1" vertex="1">
                    <mxGeometry x="1630" y="780" width="20" height="30" as="geometry"/>
                </mxCell>
            </root>
        </mxGraphModel>
    </diagram>
</mxfile>